<?xml version="1.0" encoding="UTF-8" standalone="no"?> <!-- Created with Vectornator for iOS (http://vectornator.io/) --><!DOCTYPE svg PUBLIC "-//W3C//DTD SVG 1.1//EN" "http://www.w3.org/Graphics/SVG/1.1/DTD/svg11.dtd">
<svg style="fill-rule:evenodd;clip-rule:evenodd;stroke-linecap:round;stroke-linejoin:round;" xmlns:vectornator="http://vectornator.io" xmlns:xlink="http://www.w3.org/1999/xlink" xmlns="http://www.w3.org/2000/svg" xml:space="preserve" version="1.1" viewBox="0 0 256 81.35">
<metadata>
<vectornator:setting key="DimensionsVisible" value="1"/>
<vectornator:setting key="SnapToGrid" value="0"/>
<vectornator:setting key="SnapToPoints" value="0"/>
<vectornator:setting key="GuidesVisible" value="1"/>
<vectornator:setting key="RulersVisible" value="1"/>
<vectornator:setting key="CMYKEnabledKey" value="0"/>
<vectornator:setting key="SnapToEdges" value="0"/>
<vectornator:setting key="DisplayWhiteBackground" value="0"/>
<vectornator:setting key="SnapToGuides" value="1"/>
<vectornator:setting key="GridSpacing" value="128"/>
<vectornator:setting key="Units" value="Pixels"/>
<vectornator:setting key="DynamicGuides" value="0"/>
<vectornator:setting key="New" value="1"/>
</metadata>
<defs/>
<g id="圖層1" vectornator:layerName="圖層1">
<path d="M0.172556+0L255.828+0C255.924+0+256.001+0.0772558+256.001+0.172556L256.001+81.1774C256.001+81.2727+255.924+81.35+255.828+81.35L0.172556+81.35C0.0772558+81.35+0+81.2727+0+81.1774L0+0.172556C0+0.0772558+0.0772558+0+0.172556+0Z" opacity="1" fill="#0067ff"/>
<path d="M69.0816+23.6915L46.7627+23.6915L41.183+18.1118L24.4438+18.1118C21.375+18.1118+18.8641+20.6226+18.8641+23.6915L18.8641+57.1698C18.8641+60.2387+21.375+62.7495+24.4438+62.7495L69.0816+62.7495C72.1504+62.7495+74.6613+60.2387+74.6613+57.1698L74.6613+29.2712C74.6613+26.2024+72.1504+23.6915+69.0816+23.6915ZM69.0816+57.1698L24.4438+57.1698L24.4438+29.2712L69.0816+29.2712L69.0816+57.1698Z" opacity="1" fill="#ffffff"/>
<g opacity="1">
<path d="M104.82+37.3153L104.82+39.9402L99.8223+39.9402L99.8223+41.6303L104.82+41.6303L104.82+45.4418L98.8874+45.4418L98.8874+47.1678L120.786+47.1678L120.786+45.4418L114.853+45.4418L114.853+41.6303L119.707+41.6303L119.707+39.9402L114.853+39.9402L114.853+37.3153L113.091+37.3153L113.091+39.9402L106.546+39.9402L106.546+37.3153L104.82+37.3153ZM106.546+45.4418L106.546+41.6303L113.091+41.6303L113.091+45.4418L106.546+45.4418ZM112.623+47.887L111.724+49.2175C114.242+50.2602+116.723+51.6986+119.096+53.5324L120.067+52.0941C117.837+50.44+115.356+49.0377+112.623+47.887ZM106.582+47.887C104.713+49.4332+102.375+50.7996+99.6425+51.9503L100.685+53.3167C103.49+52.0581+105.863+50.6198+107.805+49.0017L106.582+47.887ZM91.1563+25.2333L89.8619+26.4559C92.2351+28.1819+94.1409+29.836+95.5432+31.3462L96.8377+30.0517C95.3275+28.4696+93.4217+26.8515+91.1563+25.2333ZM89.1067+33.8273L89.1067+35.6253L94.7522+35.6253C93.4577+37.7827+91.8755+39.9762+90.0057+42.1337L90.0057+43.608L95.4354+43.608C94.932+46.3048+94.3207+48.6421+93.5296+50.6198C92.0193+50.9434+90.4012+52.6694+88.7112+55.8338L90.1136+57.0563C91.8036+53.9639+93.17+52.4177+94.1768+52.4177C94.4645+52.4177+94.7881+52.5256+95.0758+52.7773C96.2624+54.0718+97.5929+55.0427+99.1031+55.6899C100.434+56.3012+102.339+56.6248+104.785+56.6968C106.726+56.7327+109.099+56.7687+111.94+56.7687L120.894+56.7687L121.325+54.8988C117.37+54.9708+114.134+55.0427+111.688+55.0427C109.171+55.0427+106.906+55.0067+104.964+55.0067C102.807+54.9708+101.153+54.7191+99.9301+54.2156C98.6357+53.6403+97.449+52.7773+96.3703+51.6626C96.0107+51.303+95.6511+51.0513+95.2915+50.9075C96.0826+48.8219+96.7299+46.2689+97.2333+43.2484L97.2333+41.9539L92.307+41.9539C94.033+39.7964+95.5432+37.603+96.8377+35.3735L96.8377+33.8273L89.1067+33.8273ZM117.837+27.247L117.837+30.2675L112.516+30.2675L112.516+27.247L117.837+27.247ZM112.516+31.6699L119.491+31.6699L119.491+25.8087L110.825+25.8087L110.825+34.5825C110.825+35.7691+111.509+36.3804+112.875+36.3804L120.211+36.3804L120.211+34.8701L113.702+34.8701C112.911+34.8701+112.516+34.5105+112.516+33.8633L112.516+31.6699ZM100.074+37.0636C103.454+36.704+106.511+36.2725+109.207+35.805L108.776+34.3667C106.511+34.7263+104.173+35.0499+101.8+35.3376L101.8+31.6699L108.668+31.6699L108.668+25.8087L100.11+25.8087L100.11+34.8701C100.11+35.3016+99.8942+35.5893+99.4627+35.805L100.074+37.0636ZM101.8+30.2675L101.8+27.283L106.978+27.283L106.978+30.2675L101.8+30.2675Z" opacity="1" fill="#ffffff"/>
<path d="M136.102+25.6648L136.102+33.1082L144.553+33.1082L144.553+35.841L136.858+35.841L136.858+37.567L144.553+37.567L144.553+40.4437L135.203+40.4437L135.203+42.2056L139.483+42.2056C139.95+43.3203+140.381+44.5788+140.813+45.9453L136.031+45.9453L136.031+47.6712L144.661+47.6712L144.661+50.6917L134.592+50.6917L134.592+52.4896L144.661+52.4896L144.661+57.1283L146.53+57.1283L146.53+52.4896L156.095+52.4896L156.095+50.6917L146.53+50.6917L146.53+47.6712L154.513+47.6712L154.513+45.9453L150.09+45.9453C150.63+44.7586+151.061+43.5001+151.349+42.2056L155.772+42.2056L155.772+40.4437L146.422+40.4437L146.422+37.567L153.974+37.567L153.974+35.841L146.422+35.841L146.422+33.1082L154.873+33.1082L154.873+25.6648L136.102+25.6648ZM148.256+45.9453L142.683+45.9453C142.251+44.5788+141.856+43.3203+141.46+42.2056L149.479+42.2056C149.191+43.5001+148.796+44.7586+148.256+45.9453ZM153.111+31.4541L149.083+31.4541L149.083+27.3189L153.111+27.3189L153.111+31.4541ZM147.465+31.4541L143.474+31.4541L143.474+27.3189L147.465+27.3189L147.465+31.4541ZM141.856+31.4541L137.864+31.4541L137.864+27.3189L141.856+27.3189L141.856+31.4541ZM127.94+56.9485C129.702+56.9485+130.601+56.0136+130.601+54.1797L130.601+43.3203C131.787+42.745+132.974+42.0977+134.161+41.4145L134.161+39.5087C132.974+40.1919+131.787+40.8392+130.601+41.4145L130.601+33.4678L134.233+33.4678L134.233+31.6339L130.601+31.6339L130.601+24.694L128.659+24.694L128.659+31.6339L123.949+31.6339L123.949+33.4678L128.659+33.4678L128.659+42.2775C127.149+42.9248+125.567+43.4641+123.913+43.9316L124.416+45.8014C125.854+45.334+127.257+44.7946+128.659+44.1833L128.659+53.6763C128.659+54.6831+128.192+55.2225+127.257+55.2225C126.394+55.2225+125.459+55.1865+124.488+55.1146L124.919+56.9485L127.94+56.9485Z" opacity="1" fill="#ffffff"/>
<path d="M166.018+38.3221C166.917+39.6526+167.996+41.4505+169.254+43.7158L170.369+42.0977C168.859+39.9043+167.42+37.9625+166.018+36.2365L166.018+33.6835L169.578+33.6835L169.578+31.8496L166.018+31.8496L166.018+24.5861L164.148+24.5861L164.148+31.8496L159.51+31.8496L159.51+33.6835L164.112+33.6835C163.105+38.3581+161.343+42.4933+158.862+46.161L159.653+48.1387C161.523+45.1901+163.033+41.882+164.148+38.1783L164.148+57.2361L166.018+57.2361L166.018+38.3221ZM173.929+25.1614L172.383+25.8806C173.389+27.1032+174.324+28.5055+175.187+30.0877L176.698+29.3685C175.835+27.8223+174.9+26.42+173.929+25.1614ZM189.966+44.1114L171.556+44.1114L171.556+57.2361L173.425+57.2361L173.425+55.8697L188.06+55.8697L188.06+57.2721L189.966+57.2721L189.966+44.1114ZM173.425+54.2516L173.425+50.7996L179.862+50.7996L179.862+54.2516L173.425+54.2516ZM181.624+54.2516L181.624+50.7996L188.06+50.7996L188.06+54.2516L181.624+54.2516ZM173.425+49.3253L173.425+45.7295L179.862+45.7295L179.862+49.3253L173.425+49.3253ZM181.624+45.7295L188.06+45.7295L188.06+49.3253L181.624+49.3253L181.624+45.7295ZM187.773+25.1614C187.054+26.5638+186.119+28.0021+184.968+29.4404L186.442+30.1596C187.593+28.7932+188.528+27.3549+189.247+25.8806L187.773+25.1614ZM179.754+24.694L179.754+30.4832L170.836+30.4832L170.836+37.1355L172.634+37.1355L172.634+32.2092L188.78+32.2092L188.78+37.1355L190.577+37.1355L190.577+30.4832L181.66+30.4832L181.66+24.694L179.754+24.694ZM174.181+34.942L174.181+41.7741L187.269+41.7741L187.269+34.942L174.181+34.942ZM185.543+40.2639L175.871+40.2639L175.871+36.4163L185.543+36.4163L185.543+40.2639Z" opacity="1" fill="#ffffff"/>
<path d="M208.159+30.3034C207.404+31.3822+206.613+32.4609+205.75+33.5756L196.365+33.5756L196.365+35.1938L204.492+35.1938C203.629+36.2365+202.73+37.3153+201.795+38.394C204.42+38.8974+207.045+39.4728+209.706+40.156C206.361+41.4145+201.831+42.0618+196.113+42.0618L197.192+43.6439C203.377+43.572+208.375+42.6371+212.187+40.8032C215.854+41.8101+219.558+42.9607+223.226+44.2912L224.341+42.7809C220.853+41.5943+217.437+40.5875+214.128+39.7245C215.783+38.6098+217.293+37.0995+218.695+35.1938L224.844+35.1938L224.844+33.5756L207.908+33.5756C208.555+32.7486+209.238+31.8496+209.957+30.8428L208.159+30.3034ZM211.899+39.1492C209.418+38.5019+207.009+37.9985+204.635+37.567C205.247+36.8838+205.93+36.0927+206.649+35.1938L216.646+35.1938C215.459+36.704+213.877+37.9985+211.899+39.1492ZM224.88+27.6066L211.791+27.6066C211.324+26.42+210.82+25.3772+210.281+24.4423L208.303+24.8018C208.879+25.6289+209.382+26.5638+209.885+27.6066L196.257+27.6066L196.257+32.3531L198.091+32.3531L198.091+29.2607L223.046+29.2607L223.046+32.3531L224.88+32.3531L224.88+27.6066ZM195.25+46.161L195.25+47.887L209.67+47.887L209.67+57.4159L211.611+57.4159L211.611+47.887L225.923+47.887L225.923+46.161L211.611+46.161L211.611+43.1765L209.67+43.1765L209.67+46.161L195.25+46.161ZM216.681+49.4332L215.495+50.5839C218.947+52.7414+221.716+54.755+223.729+56.6968L225.096+55.3303C222.83+53.3526+220.026+51.3749+216.681+49.4332ZM204.456+49.4332C202.082+51.5907+199.17+53.4965+195.718+55.0786L196.904+56.6248C200.428+54.8988+203.377+52.9211+205.75+50.6198L204.456+49.4332Z" opacity="1" fill="#ffffff"/>
</g>
</g>
</svg>
